<?xml version="1.0" encoding="UTF-8" standalone="no"?>
<!-- Created with Inkscape (http://www.inkscape.org/) -->

<svg
   width="612pt"
   height="792pt"
   id="svg2449"
   sodipodi:version="0.32"
   inkscape:version="1.3 (0e150ed6c4, 2023-07-21)"
   sodipodi:docname="logo.svg"
   inkscape:output_extension="org.inkscape.output.svg.inkscape"
   version="1.1"
   inkscape:export-filename="/usr/local/mystuff/construye/arbol/medios/logo706x509.png"
   inkscape:export-xdpi="90.083458"
   inkscape:export-ydpi="90.083458"
   xmlns:inkscape="http://www.inkscape.org/namespaces/inkscape"
   xmlns:sodipodi="http://sodipodi.sourceforge.net/DTD/sodipodi-0.dtd"
   xmlns="http://www.w3.org/2000/svg"
   xmlns:svg="http://www.w3.org/2000/svg"
   xmlns:rdf="http://www.w3.org/1999/02/22-rdf-syntax-ns#"
   xmlns:cc="http://creativecommons.org/ns#"
   xmlns:dc="http://purl.org/dc/elements/1.1/">
  <defs
     id="defs2451">
    <inkscape:perspective
       sodipodi:type="inkscape:persp3d"
       inkscape:vp_x="0 : 563.2 : 1"
       inkscape:vp_y="0 : 1137.7778 : 0"
       inkscape:vp_z="870.4 : 563.2 : 1"
       inkscape:persp3d-origin="435.2 : 375.46667 : 1"
       id="perspective2458" />
  </defs>
  <sodipodi:namedview
     inkscape:document-units="in"
     pagecolor="#ffffff"
     bordercolor="#666666"
     borderopacity="1.0"
     inkscape:pageopacity="0.0"
     inkscape:pageshadow="2"
     inkscape:zoom="0.36"
     inkscape:cx="700"
     inkscape:cy="545.83333"
     inkscape:current-layer="layer1"
     id="namedview2453"
     showgrid="false"
     inkscape:window-width="940"
     inkscape:window-height="653"
     inkscape:window-x="35"
     inkscape:window-y="23"
     inkscape:window-maximized="0"
     inkscape:showpageshadow="2"
     inkscape:pagecheckerboard="0"
     inkscape:deskcolor="#d1d1d1" />
  <metadata
     id="metadata2455">
    <rdf:RDF>
      <cc:Work
         rdf:about="">
        <dc:format>image/svg+xml</dc:format>
        <dc:type
           rdf:resource="http://purl.org/dc/dcmitype/StillImage" />
        <dc:title />
      </cc:Work>
    </rdf:RDF>
  </metadata>
  <g
     inkscape:label="Layer 1"
     inkscape:groupmode="layer"
     id="layer1">
    <g
       id="g2539"
       inkscape:export-filename="D:\PeDu\vivitsk\bannery\ichtys.png"
       inkscape:export-xdpi="15"
       inkscape:export-ydpi="15"
       transform="matrix(1.1159061,0,0,2.041617,-46.599272,-628.04512)">
      <path
         style="opacity:1;fill:#da0000;fill-opacity:1;stroke:none;stroke-width:12;stroke-linecap:round;stroke-linejoin:round;stroke-miterlimit:4;stroke-dasharray:none;stroke-opacity:1"
         d="M 326.63886,312.95953 C 188.72206,310.01669 67.506964,425.00343 61.388859,433.61578 C 70.330396,435.32245 83.042587,436.90544 88.485483,437.9634 C 142.78438,393.62291 189.56695,338.02803 327.11795,333.19137 C 505.70212,326.91186 622.11616,477.28645 682.29511,537.49078 C 683.79718,539.06074 686.03059,539.69606 688.13409,539.15176 C 690.23759,538.60746 691.88253,536.96857 692.43457,534.86709 C 692.98662,532.76561 692.35952,530.52987 690.79511,529.02203 C 632.15638,470.35858 511.97349,316.91417 326.63886,312.95953 z"
         id="path2384"
         sodipodi:nodetypes="cccscsscc" />
      <g
         transform="matrix(1,0,0,-1,-89.361141,692.85019)"
         id="use13611">
        <path
           style="opacity:1;fill:#da0000;fill-opacity:1;stroke:none;stroke-width:12;stroke-linecap:round;stroke-linejoin:round;stroke-miterlimit:4;stroke-dasharray:none;stroke-opacity:1"
           d="M 416,130.96875 C 278.0832,128.02591 185.03084,192.74431 150.75,251.625 C 149.64885,253.47971 149.62786,255.78273 150.69503,257.65721 C 151.76221,259.53168 153.75333,260.68917 155.91029,260.68897 C 158.06726,260.68877 176.77979,257.12574 177.84662,255.25107 C 209.2633,201.28985 279.23008,155.07518 413.26074,157.9351 C 592.07787,161.75067 711.4773,295.29567 771.65625,355.5 C 773.15832,357.06996 775.39173,357.70528 777.49523,357.16098 C 779.59873,356.61668 781.24367,354.97779 781.79571,352.87631 C 782.34776,350.77483 781.72066,348.53909 780.15625,347.03125 C 721.51752,288.3678 601.33463,134.92339 416,130.96875 z"
           id="path2536"
           sodipodi:nodetypes="ccsscscsscc" />
      </g>
    </g>
    <path
       style="fill:#ffffff;fill-opacity:1"
       d="m 146.43901,306.06003 c -7.94407,-12.47499 4.34085,-31.38793 4.34085,-31.38793 -1.39394,-1.39394 23.4993,-23.25681 40.13787,-13.02808 13.32214,0.9685 11.57981,10.34552 3.85913,26.29431 -8.89925,18.3834 -33.14041,29.59716 -48.33785,18.1217 z"
       id="path3759"
       inkscape:connector-curvature="0"
       sodipodi:nodetypes="ccccc" />
    <path
       style="fill:#ffffff;fill-opacity:1"
       d="M 234.51782,459.93823 C 156.75924,438.05181 90.016229,378.36991 64.431891,296.09816 l -12.41831,-26.53092 33.16187,-58.91437 C 127.30518,135.80648 167.52793,104.22452 219.2363,79.124281 258.49344,60.068111 272.449,51.940914 324.79185,51.727127 c 63.35052,-0.258748 89.4429,10.904876 141.81652,50.447343 l 36.64822,31.25666 c 18.64609,23.08861 12.18642,13.41904 38.48662,46.47628 0,0 38.31377,47.25451 44.58204,58.40739 l 12.78575,20.27797 -28.5272,38.12039 c -53.73406,71.83101 -119.97345,132.21001 -176.48769,153.67133 -41.27405,15.67385 -119.14327,20.93484 -159.57829,9.55374 z"
       id="path3763"
       inkscape:connector-curvature="0"
       sodipodi:nodetypes="cccccccccccccc" />
    <path
       style="font-size:300px;line-height:1.25;font-family:escuela-cursiva;-inkscape-font-specification:escuela-cursiva;letter-spacing:0px;word-spacing:0px;fill:#741e00"
       d="m 188.91869,245.36331 q 5.27472,0 15.16483,4.94506 9.89011,4.94505 13.18682,11.20879 l -14.5055,37.58242 q 0,9.89011 18.13187,9.89011 1.97802,3.95604 1.97802,5.93406 0,2.63737 -1.97802,5.93407 -8.57143,0 -17.47253,-3.2967 -8.90109,-3.62638 -8.90109,-11.86814 -3.62638,5.27473 -13.84616,10.21978 -9.89011,4.94506 -24.3956,4.94506 -7.58242,0 -13.84616,-4.94506 -5.93406,-5.27472 -7.91208,-11.86813 -0.98902,3.29671 -8.57143,10.21978 -7.58242,6.59341 -15.16484,6.59341 -1.31868,-0.98901 -1.31868,-5.6044 0,-5.27472 1.64835,-5.93406 3.95605,0 11.20879,-7.25275 7.58242,-7.25275 9.56044,-10.87912 4.61539,-20.43956 20.10989,-32.96703 15.82418,-12.85715 36.92308,-12.85715 z m -2.96703,12.19781 q -9.23077,0 -20.10989,4.94505 -10.54945,4.61538 -16.15385,14.50549 -4.61538,9.89011 -4.61538,17.8022 0,14.5055 13.51648,14.5055 9.23077,0 18.79121,-4.94506 9.89011,-4.94505 14.50549,-12.52747 9.56044,-17.14286 9.56044,-23.73626 0,-4.28572 -3.62637,-6.26374 -3.2967,-1.97802 -11.86813,-4.28571 z m 82.08784,51.75824 q 14.83516,0 30.98901,-13.84616 1.64835,-2.96703 4.94506,-7.91208 3.62637,-4.94506 4.61538,-6.92308 0.98901,-1.97802 1.97802,-6.59341 0.98901,-4.61538 0.98901,-10.54945 -3.2967,-6.26374 -13.51648,-6.26374 -14.17582,0.98902 -23.73626,6.59341 -2.96704,1.64835 -5.27473,3.62638 -2.30769,1.64835 -3.95604,2.96703 -1.31868,1.31868 -3.29671,4.61538 -1.97802,2.96704 -2.63736,3.95605 -0.32967,0.98901 -2.63736,5.93406 -1.97802,4.61539 -2.63736,5.6044 0,9.23077 3.95604,14.17582 4.28571,4.61539 10.21978,4.61539 z m -42.85714,0 q 12.85714,-3.29671 18.13186,-15.82418 3.62638,-15.4945 13.18682,-28.68132 22.74725,-18.46154 44.17582,-18.46154 5.27473,0 9.89011,1.31869 4.94506,1.31868 7.25275,2.63736 l 1.97802,1.31868 35.6044,-88.02198 q 9.23077,-22.41758 11.86813,-26.7033 2.96703,-4.28571 8.57143,-4.28571 2.30769,4.61538 2.30769,6.59341 0,2.63736 -9.23077,28.35165 -54.3956,130.54945 -54.3956,131.53846 0,3.62637 3.2967,6.92307 3.62637,3.29671 9.89011,3.29671 1.97802,0.98901 2.30769,1.64835 0.65934,0.32967 0.65934,1.64835 0.32967,1.31868 0.98901,2.63736 -0.65934,4.61539 -5.60439,5.6044 -9.89011,-0.98901 -16.48352,-6.59341 -2.96703,-1.97802 -4.28571,-11.86813 -1.64835,1.31868 -7.91209,7.58242 -5.93407,6.26373 -12.52747,8.57143 -6.26374,2.30769 -18.46154,2.30769 -9.23077,-1.97802 -13.18682,-3.95605 -3.62637,-2.30769 -6.92307,-9.23076 l -6.26374,6.5934 q -0.98901,0.65934 -2.96703,2.30769 -1.97802,1.64836 -2.96703,1.97803 -0.65935,0.32967 -2.63737,1.31868 -1.64835,0.65934 -3.62637,0.98901 -1.97802,0 -4.94506,0 -3.62637,0 -3.62637,-6.59341 0,-4.94505 5.93407,-4.94505 z M 497.48982,132.94573 q -3.62638,10.21978 -23.07693,55.05495 -19.12087,44.83516 -36.5934,84.72527 l -17.8022,39.56044 q 8.57143,-2.96703 33.62637,-2.96703 2.96704,2.30769 2.96704,5.60439 0,2.96704 -2.63737,5.93407 -19.12088,0 -37.58241,4.94505 -5.27473,10.87912 -13.84616,30.32967 -8.57143,19.45055 -13.84615,30.32967 -5.27473,10.87913 -12.1978,23.07693 -6.59341,12.1978 -13.18682,17.8022 -6.26373,5.60439 -12.85714,5.60439 -19.78022,0 -19.78022,-29.01099 0,-16.48351 3.62637,-25.71428 2.3077,-16.81319 23.07693,-33.62638 21.0989,-16.48351 45.82417,-26.04395 l 69.89011,-160.21978 q -5.60439,5.27472 -22.74725,8.57142 -17.14286,2.96704 -33.62637,11.2088 -31.31868,10.54945 -31.31868,19.45055 0,0.32967 0,0.98901 0.32967,0.32967 0.32967,0.65934 -3.95605,3.62637 -7.25275,3.62637 -3.62638,0 -5.93407,-4.94505 3.95605,-9.89011 10.87912,-16.15385 6.92308,-6.26374 16.81319,-11.20879 10.21978,-5.27473 11.20879,-5.93407 6.26374,-2.96703 21.75824,-5.93406 15.49451,-3.29671 28.68132,-8.9011 13.18682,-5.6044 21.0989,-16.81319 z M 395.62169,333.71496 q -17.14286,8.9011 -31.31869,21.42857 -14.17582,12.85715 -18.13186,24.06594 -3.95605,14.50549 -3.95605,26.37362 0,16.15385 9.23077,16.15385 6.59341,0 44.17583,-88.02198 z"
       id="text2987"
       aria-label="adJ" />
    <path
       style="fill:#3fffff;fill-opacity:1"
       d=""
       id="path3769"
       inkscape:connector-curvature="0" />
    <path
       style="fill:#8dffff;fill-opacity:1"
       d=""
       id="path3777"
       inkscape:connector-curvature="0" />
    <path
       style="fill:#ffffff;fill-opacity:1"
       d=""
       id="path3779"
       inkscape:connector-curvature="0" />
    <path
       style="fill:#76ffff;fill-opacity:1"
       d=""
       id="path3783"
       inkscape:connector-curvature="0" />
    <path
       style="fill:#76ffff;fill-opacity:1"
       d=""
       id="path3785"
       inkscape:connector-curvature="0" />
    <path
       style="fill:#76ffff;fill-opacity:1"
       d="m 373.34607,349.53752 c -0.42032,-0.42033 3.20702,-3.11157 3.7454,-2.77884 0.22935,0.14175 -0.31912,0.88751 -1.21883,1.65725 -1.74634,1.49406 -2.02873,1.61942 -2.52657,1.12159 z"
       id="path3787"
       inkscape:connector-curvature="0" />
    <path
       style="fill:#76ffff;fill-opacity:1"
       d=""
       id="path3791"
       inkscape:connector-curvature="0" />
    <path
       style="fill:#76ffff;fill-opacity:1"
       d=""
       id="path3793"
       inkscape:connector-curvature="0" />
    <path
       style="fill:#76ffff;fill-opacity:1"
       d=""
       id="path3795"
       inkscape:connector-curvature="0" />
  </g>
</svg>
