<?xml version="1.0" encoding="UTF-8" standalone="no"?>
<!-- Created with Inkscape (http://www.inkscape.org/) -->

<svg
   xmlns:dc="http://purl.org/dc/elements/1.1/"
   xmlns:cc="http://creativecommons.org/ns#"
   xmlns:rdf="http://www.w3.org/1999/02/22-rdf-syntax-ns#"
   xmlns:svg="http://www.w3.org/2000/svg"
   xmlns="http://www.w3.org/2000/svg"
   xmlns:sodipodi="http://sodipodi.sourceforge.net/DTD/sodipodi-0.dtd"
   xmlns:inkscape="http://www.inkscape.org/namespaces/inkscape"
   width="612pt"
   height="792pt"
   id="svg2449"
   sodipodi:version="0.32"
   inkscape:version="0.48.2 r9819"
   sodipodi:docname="logo.svg"
   inkscape:output_extension="org.inkscape.output.svg.inkscape"
   version="1.1"
   inkscape:export-filename="/home/vtamara/comp/adJ/arbolcd/medios/logov706x509.png"
   inkscape:export-xdpi="90.083458"
   inkscape:export-ydpi="90.083458">
  <defs
     id="defs2451">
    <inkscape:perspective
       sodipodi:type="inkscape:persp3d"
       inkscape:vp_x="0 : 495 : 1"
       inkscape:vp_y="0 : 1000 : 0"
       inkscape:vp_z="765 : 495 : 1"
       inkscape:persp3d-origin="382.5 : 330 : 1"
       id="perspective2458" />
  </defs>
  <sodipodi:namedview
     inkscape:document-units="in"
     pagecolor="#ffffff"
     bordercolor="#666666"
     borderopacity="1.0"
     inkscape:pageopacity="0.0"
     inkscape:pageshadow="2"
     inkscape:zoom="0.36"
     inkscape:cx="698.73452"
     inkscape:cy="872.15613"
     inkscape:current-layer="layer1"
     id="namedview2453"
     showgrid="false"
     inkscape:window-width="940"
     inkscape:window-height="653"
     inkscape:window-x="35"
     inkscape:window-y="23"
     inkscape:window-maximized="0" />
  <metadata
     id="metadata2455">
    <rdf:RDF>
      <cc:Work
         rdf:about="">
        <dc:format>image/svg+xml</dc:format>
        <dc:type
           rdf:resource="http://purl.org/dc/dcmitype/StillImage" />
        <dc:title></dc:title>
      </cc:Work>
    </rdf:RDF>
  </metadata>
  <g
     inkscape:label="Layer 1"
     inkscape:groupmode="layer"
     id="layer1">
    <g
       id="g2539"
       inkscape:export-filename="D:\PeDu\vivitsk\bannery\ichtys.png"
       inkscape:export-xdpi="15"
       inkscape:export-ydpi="15"
       transform="matrix(1.1159061,0,0,2.041617,-46.599272,-628.04512)">
      <path
         style="opacity:1;fill:#da0000;fill-opacity:1;stroke:none;stroke-width:12;stroke-linecap:round;stroke-linejoin:round;stroke-miterlimit:4;stroke-dasharray:none;stroke-opacity:1"
         d="M 326.63886,312.95953 C 188.72206,310.01669 67.506964,425.00343 61.388859,433.61578 C 70.330396,435.32245 83.042587,436.90544 88.485483,437.9634 C 142.78438,393.62291 189.56695,338.02803 327.11795,333.19137 C 505.70212,326.91186 622.11616,477.28645 682.29511,537.49078 C 683.79718,539.06074 686.03059,539.69606 688.13409,539.15176 C 690.23759,538.60746 691.88253,536.96857 692.43457,534.86709 C 692.98662,532.76561 692.35952,530.52987 690.79511,529.02203 C 632.15638,470.35858 511.97349,316.91417 326.63886,312.95953 z"
         id="path2384"
         sodipodi:nodetypes="cccscsscc" />
      <g
         transform="matrix(1,0,0,-1,-89.361141,692.85019)"
         id="use13611">
        <path
           style="opacity:1;fill:#da0000;fill-opacity:1;stroke:none;stroke-width:12;stroke-linecap:round;stroke-linejoin:round;stroke-miterlimit:4;stroke-dasharray:none;stroke-opacity:1"
           d="M 416,130.96875 C 278.0832,128.02591 185.03084,192.74431 150.75,251.625 C 149.64885,253.47971 149.62786,255.78273 150.69503,257.65721 C 151.76221,259.53168 153.75333,260.68917 155.91029,260.68897 C 158.06726,260.68877 176.77979,257.12574 177.84662,255.25107 C 209.2633,201.28985 279.23008,155.07518 413.26074,157.9351 C 592.07787,161.75067 711.4773,295.29567 771.65625,355.5 C 773.15832,357.06996 775.39173,357.70528 777.49523,357.16098 C 779.59873,356.61668 781.24367,354.97779 781.79571,352.87631 C 782.34776,350.77483 781.72066,348.53909 780.15625,347.03125 C 721.51752,288.3678 601.33463,134.92339 416,130.96875 z"
           id="path2536"
           sodipodi:nodetypes="ccsscscsscc" />
      </g>
    </g>
    <path
       style="fill:#ffffff;fill-opacity:1"
       d="m 146.43901,306.06003 c -7.94407,-12.47499 4.34085,-31.38793 4.34085,-31.38793 -1.39394,-1.39394 23.4993,-23.25681 40.13787,-13.02808 13.32214,0.9685 11.57981,10.34552 3.85913,26.29431 -8.89925,18.3834 -33.14041,29.59716 -48.33785,18.1217 z"
       id="path3759"
       inkscape:connector-curvature="0"
       sodipodi:nodetypes="ccccc" />
    <path
       style="fill:#ffffff;fill-opacity:1"
       d="M 234.51782,459.93823 C 156.75924,438.05181 90.016229,378.36991 64.431891,296.09816 l -12.41831,-26.53092 33.16187,-58.91437 C 127.30518,135.80648 167.52793,104.22452 219.2363,79.124281 258.49344,60.068111 272.449,51.940914 324.79185,51.727127 c 63.35052,-0.258748 89.4429,10.904876 141.81652,50.447343 l 36.64822,31.25666 c 18.64609,23.08861 12.18642,13.41904 38.48662,46.47628 0,0 38.31377,47.25451 44.58204,58.40739 l 12.78575,20.27797 -28.5272,38.12039 c -53.73406,71.83101 -119.97345,132.21001 -176.48769,153.67133 -41.27405,15.67385 -119.14327,20.93484 -159.57829,9.55374 z"
       id="path3763"
       inkscape:connector-curvature="0"
       sodipodi:nodetypes="cccccccccccccc" />
    <text
       xml:space="preserve"
       style="font-size:300px;font-style:normal;font-variant:normal;font-weight:normal;font-stretch:normal;text-align:start;line-height:125%;letter-spacing:0px;word-spacing:0px;writing-mode:lr-tb;text-anchor:start;fill:#741e00;fill-opacity:1;stroke:none;font-family:escuela-cursiva;-inkscape-font-specification:escuela-cursiva"
       x="112.43517"
       y="320.85782"
       id="text2987"
       sodipodi:linespacing="125%"><tspan
         sodipodi:role="line"
         id="tspan2995"
         x="112.43517"
         y="320.85782">adJ</tspan></text>
    <path
       style="fill:#3fffff;fill-opacity:1"
       d=""
       id="path3769"
       inkscape:connector-curvature="0" />
    <path
       style="fill:#8dffff;fill-opacity:1"
       d=""
       id="path3777"
       inkscape:connector-curvature="0" />
    <path
       style="fill:#ffffff;fill-opacity:1"
       d=""
       id="path3779"
       inkscape:connector-curvature="0" />
    <path
       style="fill:#76ffff;fill-opacity:1"
       d=""
       id="path3783"
       inkscape:connector-curvature="0" />
    <path
       style="fill:#76ffff;fill-opacity:1"
       d=""
       id="path3785"
       inkscape:connector-curvature="0" />
    <path
       style="fill:#76ffff;fill-opacity:1"
       d="m 373.34607,349.53752 c -0.42032,-0.42033 3.20702,-3.11157 3.7454,-2.77884 0.22935,0.14175 -0.31912,0.88751 -1.21883,1.65725 -1.74634,1.49406 -2.02873,1.61942 -2.52657,1.12159 z"
       id="path3787"
       inkscape:connector-curvature="0" />
    <path
       style="fill:#76ffff;fill-opacity:1"
       d=""
       id="path3791"
       inkscape:connector-curvature="0" />
    <path
       style="fill:#76ffff;fill-opacity:1"
       d=""
       id="path3793"
       inkscape:connector-curvature="0" />
    <path
       style="fill:#76ffff;fill-opacity:1"
       d=""
       id="path3795"
       inkscape:connector-curvature="0" />
    <text
       xml:space="preserve"
       style="font-size:40px;font-style:normal;font-weight:normal;line-height:125%;letter-spacing:0px;word-spacing:0px;fill:#000000;fill-opacity:1;stroke:none;font-family:Sans"
       x="430.55557"
       y="381.66666"
       id="text3000"
       sodipodi:linespacing="125%"><tspan
         sodipodi:role="line"
         id="tspan3002"
         x="430.55557"
         y="381.66666">5.8</tspan></text>
  </g>
</svg>
